<svg xmlns="http://www.w3.org/2000/svg" version="1.1" xmlns:xlink="http://www.w3.org/1999/xlink" xmlns:svgjs="http://svgjs.dev/svgjs" width="1500" height="1500" viewBox="0 0 1500 1500"><rect width="1500" height="1500" fill="#1b4571"></rect><g transform="matrix(0.6666666666666666,0,0,0.6666666666666666,249.39393939393938,573.3116263153512)"><svg viewBox="0 0 396 140" data-background-color="#1b4571" preserveAspectRatio="xMidYMid meet" height="530" width="1500" xmlns="http://www.w3.org/2000/svg" xmlns:xlink="http://www.w3.org/1999/xlink"><g id="tight-bounds" transform="matrix(1,0,0,1,0.2400000000000091,0.00860089391747465)"><svg viewBox="0 0 395.52 139.98279821216505" height="139.98279821216505" width="395.52"><g><svg viewBox="0 0 395.52 139.98279821216505" height="139.98279821216505" width="395.52"><g><svg viewBox="0 0 395.52 139.98279821216505" height="139.98279821216505" width="395.52"><g id="textblocktransform"><svg viewBox="0 0 395.52 139.98279821216505" height="139.98279821216505" width="395.52" id="textblock"><g><rect width="395.52" height="104.54993313483624" fill="none" stroke-width="9.018103199999999" stroke="#ffffff" data-fill-palette-color="none" data-stroke-palette-color="tertiary"></rect><rect width="395.52" height="35.4328650773288" y="104.54993313483624" fill="#ffffff" data-fill-palette-color="tertiary"></rect></g><g><svg viewBox="0 0 395.52 104.54993313483624" height="104.54993313483624" width="395.52"><g transform="matrix(1,0,0,1,23.607599999999998,23.607599999999998)"><svg width="348.3048" viewBox="0.65 -38.2 235.07999999999998 38.7" height="57.33473313483624" data-palette-color="#ffffff"><path d="M11.85-24.95L8.4-24 13.55-6 14.15-3.05 14.4-3.05 15-6 20.85-27.5 24.45-27.5 30.5-6 31.1-3.05 31.3-3.05 31.9-6 36.9-24 33.65-24.95 33.65-27 43.15-27 43.15-24.95 40.45-24 33 0.5 27.85 0.5 21.9-19 16.1 0.5 10.95 0.5 3.3-24 0.65-24.95 0.65-27 11.85-27 11.85-24.95ZM60.7-24.1L60.7-24.1Q60.5-24.25 60.22-24.33 59.95-24.4 59.7-24.4L59.7-24.4Q59.1-24.4 58.4-23.85 57.7-23.3 57.05-22.38 56.4-21.45 55.85-20.25L55.85-20.25Q55.15-18.55 54.75-16.53 54.35-14.5 54.35-12.35L54.35-12.35 54.35-3 59.75-2.05 59.75 0 45.65 0 45.65-2.05 49.5-3 49.5-24 45.65-24.95 45.65-27 52.85-27 53.95-20.4 54.15-20.4Q55.3-23.8 57.25-25.65 59.2-27.5 61.55-27.5L61.55-27.5Q63.5-27.5 64.8-26.28 66.1-25.05 66.1-23L66.1-23Q66.1-21.5 65.32-20.63 64.55-19.75 63.25-19.75L63.25-19.75Q61.95-19.75 61.2-20.58 60.45-21.4 60.45-22.75L60.45-22.75Q60.45-23.05 60.5-23.33 60.55-23.6 60.7-24.1ZM72.4-3L72.4-24 68.55-24.95 68.55-27 77.25-27 77.25-3 81.09-2.05 81.09 0 68.55 0 68.55-2.05 72.4-3ZM71.7-35.05L71.7-35.05Q71.7-36.5 72.55-37.35 73.4-38.2 74.8-38.2L74.8-38.2Q76.25-38.2 77.09-37.35 77.95-36.5 77.95-35.05L77.95-35.05Q77.95-33.65 77.09-32.8 76.25-31.95 74.8-31.95L74.8-31.95Q73.34-31.95 72.52-32.77 71.7-33.6 71.7-35.05ZM87.64-24.5L82.79-24.5 82.79-26.3 87.64-27 88.29-33.3 92.49-33.9 92.49-27 98.89-27 98.89-24.5 92.49-24.5 92.49-6.65Q92.49-4.95 92.54-4.33 92.59-3.7 92.74-3.3L92.74-3.3Q92.89-2.95 93.29-2.83 93.69-2.7 94.59-2.7L94.59-2.7 98.09-2.7 98.09-1.25Q95.69-0.35 93.87 0.08 92.04 0.5 90.94 0.5L90.94 0.5Q88.69 0.5 88.04-1.35L88.04-1.35Q87.84-1.95 87.74-2.9 87.64-3.85 87.64-5.7L87.64-5.7 87.64-24.5ZM124.24-13.2L124.24-13.2 106.79-13.2Q106.79-9.55 107.79-7.15L107.79-7.15Q108.79-4.85 110.64-3.85 112.49-2.85 114.64-2.85L114.64-2.85Q116.99-2.85 118.94-3.83 120.89-4.8 122.44-6.5L122.44-6.5 124.04-5.3Q122.29-2.9 119.79-1.2 117.29 0.5 113.34 0.5L113.34 0.5Q109.89 0.5 107.24-0.98 104.59-2.45 103.19-5.3L103.19-5.3Q102.44-6.85 102.09-8.75 101.74-10.65 101.74-12.8L101.74-12.8Q101.74-19.8 104.97-23.65 108.19-27.5 113.74-27.5L113.74-27.5Q118.84-27.5 121.62-24.33 124.39-21.15 124.39-15.55L124.39-15.55Q124.39-15.05 124.37-14.63 124.34-14.2 124.24-13.2ZM113.44-24.8L113.44-24.8Q107.44-24.8 106.84-15.65L106.84-15.65 119.34-15.65 119.34-17.3Q119.34-20.9 117.81-22.85 116.29-24.8 113.44-24.8ZM137.99-24.95L134.54-24 139.69-6 140.29-3.05 140.54-3.05 141.14-6 146.99-27.5 150.59-27.5 156.64-6 157.24-3.05 157.44-3.05 158.04-6 163.04-24 159.79-24.95 159.79-27 169.29-27 169.29-24.95 166.59-24 159.14 0.5 153.99 0.5 148.04-19 142.24 0.5 137.09 0.5 129.44-24 126.79-24.95 126.79-27 137.99-27 137.99-24.95ZM175.64-3L175.64-24 171.79-24.95 171.79-27 180.49-27 180.49-3 184.34-2.05 184.34 0 171.79 0 171.79-2.05 175.64-3ZM174.94-35.05L174.94-35.05Q174.94-36.5 175.79-37.35 176.64-38.2 178.04-38.2L178.04-38.2Q179.49-38.2 180.34-37.35 181.19-36.5 181.19-35.05L181.19-35.05Q181.19-33.65 180.34-32.8 179.49-31.95 178.04-31.95L178.04-31.95Q176.59-31.95 175.76-32.77 174.94-33.6 174.94-35.05ZM197.78-1.8L197.78-1.8Q200.58-1.8 202.36-2.95 204.13-4.1 204.13-6.15L204.13-6.15Q204.13-7.8 203.03-8.8 201.93-9.8 200.31-10.43 198.68-11.05 197.03-11.5L197.03-11.5Q194.98-12.15 193.08-13.03 191.18-13.9 189.98-15.45 188.78-17 188.78-19.55L188.78-19.55Q188.78-23.15 191.41-25.33 194.03-27.5 198.73-27.5L198.73-27.5Q202.73-27.5 205.06-25.83 207.38-24.15 207.38-21.25L207.38-21.25Q207.38-19.7 206.68-18.78 205.98-17.85 204.68-17.85L204.68-17.85Q203.53-17.85 202.78-18.55 202.03-19.25 202.03-20.35L202.03-20.35Q202.03-21.3 202.53-22.08 203.03-22.85 203.83-23.2L203.83-23.2Q203.08-24.25 201.91-24.73 200.73-25.2 198.88-25.2L198.88-25.2Q195.88-25.2 194.38-24.13 192.88-23.05 192.88-20.95L192.88-20.95Q192.88-19.45 193.61-18.57 194.33-17.7 195.73-17.1 197.13-16.5 199.18-15.85L199.18-15.85Q200.88-15.35 202.53-14.73 204.18-14.1 205.53-13.2 206.88-12.3 207.68-10.95 208.48-9.6 208.48-7.6L208.48-7.6Q208.48-5.05 207.08-3.23 205.68-1.4 203.23-0.45 200.78 0.5 197.58 0.5L197.58 0.5Q193.18 0.5 190.48-1.3 187.78-3.1 187.78-6.15L187.78-6.15Q187.78-7.75 188.51-8.68 189.23-9.6 190.58-9.6L190.58-9.6Q191.78-9.6 192.61-8.9 193.43-8.2 193.43-7.05L193.43-7.05Q193.43-6.1 192.91-5.25 192.38-4.4 191.63-4L191.63-4Q192.28-3.05 193.96-2.43 195.63-1.8 197.78-1.8ZM235.58-13.2L235.58-13.2 218.13-13.2Q218.13-9.55 219.13-7.15L219.13-7.15Q220.13-4.85 221.98-3.85 223.83-2.85 225.98-2.85L225.98-2.85Q228.33-2.85 230.28-3.83 232.23-4.8 233.78-6.5L233.78-6.5 235.38-5.3Q233.63-2.9 231.13-1.2 228.63 0.5 224.68 0.5L224.68 0.5Q221.23 0.5 218.58-0.98 215.93-2.45 214.53-5.3L214.53-5.3Q213.78-6.85 213.43-8.75 213.08-10.65 213.08-12.8L213.08-12.8Q213.08-19.8 216.31-23.65 219.53-27.5 225.08-27.5L225.08-27.5Q230.18-27.5 232.96-24.33 235.73-21.15 235.73-15.55L235.73-15.55Q235.73-15.05 235.71-14.63 235.68-14.2 235.58-13.2ZM224.78-24.8L224.78-24.8Q218.78-24.8 218.18-15.65L218.18-15.65 230.68-15.65 230.68-17.3Q230.68-20.9 229.16-22.85 227.63-24.8 224.78-24.8Z" opacity="1" transform="matrix(1,0,0,1,0,0)" fill="#ffffff" class="wordmark-text-0" data-fill-palette-color="primary" id="text-0"></path></svg></g></svg></g></svg></g></svg></g></svg></g><defs></defs></svg><rect width="395.52" height="139.98279821216505" fill="none" stroke="none" visibility="hidden"></rect></g></svg></g></svg>